<svg viewBox="0 0 100 100" xmlns="http://www.w3.org/2000/svg" xmlns:xlink="http://www.w3.org/1999/xlink">
    <g id="svgg">
        <path id="path1" stroke="#ffffff" fill="#ffffff" stroke-width="1" d="M51.988,10.203c-4.326,1.609-4.54,7.693-0.336,9.525l0.73,0.317v10.197v10.195h-4.694h-4.694
        l-0.029,11.132c-0.016,6.124-0.014,11.442,0.004,11.822l0.032,0.693l4.829-0.03l4.829-0.027V62.59v-1.435l-3.342-0.03l-3.343-0.029
        v-8.838v-8.837h4.695h4.696l0.002-11.74l0.002-11.739l0.631-0.273c3.493-1.514,3.864-6.749,0.631-8.897
        C55.341,9.915,53.402,9.677,51.988,10.203 M80.338,58.792c-1.709,0.276-3.978,2.333-3.979,3.604c0,0.11-1.3,0.14-6.132,0.14h-6.132
        v4.915v4.916l-4.282,0.028l-4.281,0.029v1.437v1.436l5.772,0.029l5.773,0.029v-4.919v-4.918l4.669,0.006l4.668,0.007l0.3,0.631
        c1.76,3.727,7.346,3.725,9.171-0.002C87.766,62.318,84.592,58.104,80.338,58.792" />
        <path id="path0" stroke="#ffffff" fill="#ffffff" stroke-width="1" d="M46.085,1.33C9.127,4.778-10.652,46.315,10.077,76.955c20.8,30.743,67.487,27.542,83.845-5.746
        C108.736,41.06,89.643,5.924,56.029,1.48C54.427,1.268,47.817,1.168,46.085,1.33 M53.267,4.2
        c39.188,2.704,56.98,50.084,29.229,77.84c-21.443,21.449-58.024,16.084-72.313-10.605C-5.667,41.831,14.146,6.448,47.853,4.159
        C49.056,4.077,51.795,4.098,53.267,4.2 M31.955,25.642c-4.747,0.932-5.553,7.555-1.177,9.66l0.832,0.4l0.028,10.738l0.028,10.738
        h1.436h1.436l0.028-10.774l0.028-10.773l0.69-0.324C40.647,32.789,37.789,24.495,31.955,25.642 M68.228,33.745
        c-5.117,1.158-5.444,8.245-0.458,9.935c0.179,0.061,0.192,0.391,0.192,4.82v4.754h-7.669h-7.67l0.004,14.254l0.002,14.252h1.497
        h1.495l-0.042-4.668c-0.022-2.568-0.031-8.31-0.017-12.762l0.025-8.094h7.624h7.623l0.003-6.27l0.003-6.27l0.728-0.325
        C76.995,40.947,74.038,32.432,68.228,33.745" />
        <path id="path2" stroke="#ffffff" fill="#ffffff" stroke-width="1" d="M17.981,53.382c-3.287,0.629-5.092,4.326-3.595,7.369c1.839,3.735,7.359,3.723,9.193-0.021
        l0.306-0.625h3.864h3.863v6.353v6.353h5.746h5.746v5.911v5.912h2.265h2.266v1.215v1.216h1.491h1.492v-1.216v-1.215h2.486h2.486
        v-1.438V81.76h-4.807h-4.807v-5.911v-5.911h-5.689h-5.69v-6.381v-6.38h-1.409c-7.376-0.006-9.205-0.054-9.271-0.249
        C23.055,54.386,20.55,52.891,17.981,53.382 M52.646,73.805c0,0.821,0.019,1.155,0.04,0.745c0.021-0.408,0.021-1.08,0-1.49
        S52.646,72.984,52.646,73.805" />
    </g>
</svg>